<svg width="180" height="180" viewBox="0 0 180 180" fill="none" xmlns="http://www.w3.org/2000/svg">
  <defs>
    <linearGradient id="bg" x1="0" y1="0" x2="180" y2="180" gradientUnits="userSpaceOnUse">
      <stop offset="0" stop-color="#101012"/>
      <stop offset="1" stop-color="#1a1a1d"/>
    </linearGradient>
    <linearGradient id="silver" x1="40" y1="40" x2="140" y2="140" gradientUnits="userSpaceOnUse">
      <stop offset="0" stop-color="#f5f7fa"/>
      <stop offset="0.5" stop-color="#cfd4dc"/>
      <stop offset="1" stop-color="#8e95a3"/>
    </linearGradient>
  </defs>
  <rect width="180" height="180" rx="36" fill="url(#bg)"/>
  <rect x="0" y="0" width="180" height="180" rx="36" fill="none" stroke="#2a2a2e" stroke-width="1"/>
  <path
    d="M122 60c-7-9-19-14-32-14-19 0-32 11-32 26 0 14 9 22 28 27l8 2c12 3 17 7 17 14 0 8-8 13-20 13-12 0-22-5-30-15l-9 9c10 12 23 18 39 18 21 0 35-11 35-27 0-15-9-23-29-28l-9-2c-11-3-15-6-15-13 0-7 7-12 18-12 9 0 17 4 22 11z"
    fill="url(#silver)"
  />
</svg>
